{
  "accessors": [
    {
      "bufferView": 2,
      "componentType": 5126,
      "count": 6138,
      "max": [
        0.6454880237579346,
        0.1048627570271492,
        1.7749705705227825e-08
      ],
      "min": [
        -0.6454880237579346,
        -0.18153800070285797,
        -1.3779624700546265
      ],
      "type": "VEC3"
    },
    {
      "bufferView": 2,
      "byteOffset": 73656,
      "componentType": 5126,
      "count": 6138,
      "max": [
        1.0,
        0.9999948740005493,
        0.9999539256095886
      ],
      "min": [
        -1.0,
        -0.9999985694885254,
        -0.9998973608016968
      ],
      "type": "VEC3"
    },
    {
      "bufferView": 1,
      "componentType": 5126,
      "count": 6138,
      "max": [
        0.9958930611610413,
        0.9970544576644897
      ],
      "min": [
        0.007240891456604004,
        0.0025197193026542664
      ],
      "type": "VEC2"
    },
    {
      "bufferView": 1,
      "byteOffset": 49104,
      "componentType": 5126,
      "count": 6138,
      "max": [
        0.9958930611610413,
        0.9970544576644897
      ],
      "min": [
        0.007240891456604004,
        0.0025197193026542664
      ],
      "type": "VEC2"
    },
    {
      "bufferView": 1,
      "byteOffset": 98208,
      "componentType": 5126,
      "count": 6138,
      "max": [
        0.9958930611610413,
        0.9970544576644897
      ],
      "min": [
        0.007240891456604004,
        0.0025197193026542664
      ],
      "type": "VEC2"
    },
    {
      "bufferView": 0,
      "componentType": 5125,
      "count": 25422,
      "type": "SCALAR"
    },
    {
      "bufferView": 2,
      "byteOffset": 147312,
      "componentType": 5126,
      "count": 2208,
      "max": [
        0.1325257420539856,
        0.14083772897720337,
        0.1827465444803238
      ],
      "min": [
        -0.1286986619234085,
        -0.21969911456108093,
        -0.3338959217071533
      ],
      "type": "VEC3"
    },
    {
      "bufferView": 2,
      "byteOffset": 173808,
      "componentType": 5126,
      "count": 2208,
      "max": [
        0.9999976754188538,
        0.997732937335968,
        0.9956062436103821
      ],
      "min": [
        -0.999775230884552,
        -0.9999569654464722,
        -0.9998894333839417
      ],
      "type": "VEC3"
    },
    {
      "bufferView": 1,
      "byteOffset": 147312,
      "componentType": 5126,
      "count": 2208,
      "max": [
        0.9958401322364807,
        0.9957792162895203
      ],
      "min": [
        0.0042699361220002174,
        0.004628479480743408
      ],
      "type": "VEC2"
    },
    {
      "bufferView": 0,
      "byteOffset": 101688,
      "componentType": 5125,
      "count": 9192,
      "type": "SCALAR"
    },
    {
      "bufferView": 2,
      "byteOffset": 200304,
      "componentType": 5126,
      "count": 1554,
      "max": [
        0.08481288701295853,
        0.13027799129486084,
        -0.02342507615685463
      ],
      "min": [
        -0.08481288701295853,
        -0.048790521919727325,
        -0.22952371835708618
      ],
      "type": "VEC3"
    },
    {
      "bufferView": 2,
      "byteOffset": 218952,
      "componentType": 5126,
      "count": 1554,
      "max": [
        0.999971330165863,
        1.0,
        0.999800443649292
      ],
      "min": [
        -0.999971330165863,
        -0.9903790950775146,
        -0.9999973773956299
      ],
      "type": "VEC3"
    },
    {
      "bufferView": 1,
      "byteOffset": 164976,
      "componentType": 5126,
      "count": 1554,
      "max": [
        0.9941559433937073,
        0.9979918599128723
      ],
      "min": [
        0.010837435722351074,
        0.02050257846713066
      ],
      "type": "VEC2"
    },
    {
      "bufferView": 0,
      "byteOffset": 138456,
      "componentType": 5125,
      "count": 6126,
      "type": "SCALAR"
    },
    {
      "bufferView": 2,
      "byteOffset": 237600,
      "componentType": 5126,
      "count": 46,
      "max": [
        0.061589498072862625,
        0.10301677137613297,
        -0.10157901793718338
      ],
      "min": [
        -0.061589498072862625,
        0.08947859704494476,
        -0.14110393822193146
      ],
      "type": "VEC3"
    },
    {
      "bufferView": 2,
      "byteOffset": 238152,
      "componentType": 5126,
      "count": 46,
      "max": [
        0.36466118693351746,
        0.9590113759040833,
        0.2887900471687317
      ],
      "min": [
        -0.3646607995033264,
        0.9080768823623657,
        0.06252416223287582
      ],
      "type": "VEC3"
    },
    {
      "bufferView": 1,
      "byteOffset": 177408,
      "componentType": 5126,
      "count": 46,
      "max": [
        0.7158269882202148,
        0.9829220771789551
      ],
      "min": [
        0.5295884609222412,
        0.01706215739250183
      ],
      "type": "VEC2"
    },
    {
      "bufferView": 0,
      "byteOffset": 162960,
      "componentType": 5125,
      "count": 144,
      "type": "SCALAR"
    }
  ],
  "asset": {
    "extras": {
      "author": "Hyke (https://sketchfab.com/Hyke)",
      "license": "CC-BY-4.0 (http://creativecommons.org/licenses/by/4.0/)",
      "source": "https://sketchfab.com/3d-models/uma-musumeapk-haru-urara-01-702c70f1afc948d484dea50a2eac26bc",
      "title": "uma musume(apk) - Haru Urara 01"
    },
    "generator": "Sketchfab-16.72.0",
    "version": "2.0"
  },
  "bufferViews": [
    {
      "buffer": 0,
      "byteLength": 163536,
      "name": "floatBufferViews",
      "target": 34963
    },
    {
      "buffer": 0,
      "byteLength": 177776,
      "byteOffset": 163536,
      "byteStride": 8,
      "name": "floatBufferViews",
      "target": 34962
    },
    {
      "buffer": 0,
      "byteLength": 238704,
      "byteOffset": 341312,
      "byteStride": 12,
      "name": "floatBufferViews",
      "target": 34962
    }
  ],
  "buffers": [
    {
      "byteLength": 580016,
      "uri": "scene.bin"
    }
  ],
  "extensionsUsed": [
    "KHR_materials_specular"
  ],
  "images": [
    {
      "uri": "textures/mtl_bdy1052_00_baseColor.png"
    },
    {
      "uri": "textures/mtl_bdy1052_00_metallicRoughness.png"
    },
    {
      "uri": "textures/mtl_chr1052_00_hair_baseColor.png"
    },
    {
      "uri": "textures/mtl_chr1052_00_hair_metallicRoughness.png"
    },
    {
      "uri": "textures/Material.001_baseColor.png"
    },
    {
      "uri": "textures/Material.001_metallicRoughness.png"
    },
    {
      "uri": "textures/eyes_baseColor.png"
    }
  ],
  "materials": [
    {
      "doubleSided": true,
      "extensions": {
        "KHR_materials_specular": {
          "specularColorFactor": [
            1.0,
            1.0,
            1.0
          ],
          "specularFactor": 0.0
        }
      },
      "name": "mtl_bdy1052_00",
      "occlusionTexture": {
        "index": 1,
        "strength": 0.6
      },
      "pbrMetallicRoughness": {
        "baseColorTexture": {
          "index": 0
        },
        "metallicFactor": 0.0,
        "metallicRoughnessTexture": {
          "index": 1
        },
        "roughnessFactor": 0.0
      }
    },
    {
      "doubleSided": true,
      "extensions": {
        "KHR_materials_specular": {
          "specularColorFactor": [
            1.0,
            1.0,
            1.0
          ],
          "specularFactor": 0.0
        }
      },
      "name": "mtl_chr1052_00_hair",
      "occlusionTexture": {
        "index": 3,
        "strength": 0.6
      },
      "pbrMetallicRoughness": {
        "baseColorTexture": {
          "index": 2
        },
        "metallicFactor": 0.0,
        "metallicRoughnessTexture": {
          "index": 3
        },
        "roughnessFactor": 0.0
      }
    },
    {
      "doubleSided": true,
      "extensions": {
        "KHR_materials_specular": {
          "specularColorFactor": [
            1.0,
            1.0,
            1.0
          ],
          "specularFactor": 0.0
        }
      },
      "name": "Material.001",
      "occlusionTexture": {
        "index": 5,
        "strength": 0.6
      },
      "pbrMetallicRoughness": {
        "baseColorTexture": {
          "index": 4
        },
        "metallicFactor": 0.0,
        "metallicRoughnessTexture": {
          "index": 5
        },
        "roughnessFactor": 0.0
      }
    },
    {
      "doubleSided": true,
      "extensions": {
        "KHR_materials_specular": {
          "specularColorFactor": [
            1.0,
            1.0,
            1.0
          ],
          "specularFactor": 0.0
        }
      },
      "name": "eyes",
      "pbrMetallicRoughness": {
        "baseColorTexture": {
          "index": 6
        },
        "metallicFactor": 0.0,
        "roughnessFactor": 0.0
      }
    }
  ],
  "meshes": [
    {
      "name": "Object_0",
      "primitives": [
        {
          "attributes": {
            "NORMAL": 1,
            "POSITION": 0,
            "TEXCOORD_0": 2,
            "TEXCOORD_1": 3,
            "TEXCOORD_2": 4
          },
          "indices": 5,
          "material": 0,
          "mode": 4
        }
      ]
    },
    {
      "name": "Object_1",
      "primitives": [
        {
          "attributes": {
            "NORMAL": 7,
            "POSITION": 6,
            "TEXCOORD_0": 8
          },
          "indices": 9,
          "material": 1,
          "mode": 4
        }
      ]
    },
    {
      "name": "Object_2",
      "primitives": [
        {
          "attributes": {
            "NORMAL": 11,
            "POSITION": 10,
            "TEXCOORD_0": 12
          },
          "indices": 13,
          "material": 2,
          "mode": 4
        }
      ]
    },
    {
      "name": "Object_3",
      "primitives": [
        {
          "attributes": {
            "NORMAL": 15,
            "POSITION": 14,
            "TEXCOORD_0": 16
          },
          "indices": 17,
          "material": 3,
          "mode": 4
        }
      ]
    }
  ],
  "nodes": [
    {
      "children": [
        1
      ],
      "matrix": [
        1.0,
        0.0,
        0.0,
        0.0,
        0.0,
        2.220446049250313e-16,
        -1.0,
        0.0,
        0.0,
        1.0,
        2.220446049250313e-16,
        0.0,
        0.0,
        0.0,
        0.0,
        1.0
      ],
      "name": "Sketchfab_model"
    },
    {
      "children": [
        2
      ],
      "name": "root"
    },
    {
      "children": [
        3,
        5,
        7,
        9
      ],
      "matrix": [
        1.0,
        0.0,
        0.0,
        0.0,
        0.0,
        2.220446049250313e-16,
        1.0,
        0.0,
        0.0,
        -1.0,
        2.220446049250313e-16,
        0.0,
        0.0,
        0.0,
        0.0,
        1.0
      ],
      "name": "GLTF_SceneRootNode"
    },
    {
      "children": [
        4
      ],
      "matrix": [
        1.0,
        0.0,
        0.0,
        0.0,
        0.0,
        0.0,
        1.0,
        0.0,
        0.0,
        -1.0,
        0.0,
        0.0,
        0.0,
        -0.00038518011569976807,
        0.017695458605885506,
        1.0
      ],
      "name": "M_Body_0"
    },
    {
      "mesh": 0,
      "name": "Object_4"
    },
    {
      "children": [
        6
      ],
      "matrix": [
        1.0,
        0.0,
        0.0,
        0.0,
        0.0,
        0.0,
        1.0,
        0.0,
        0.0,
        -1.0,
        0.0,
        0.0,
        0.0,
        1.3155131340026855,
        -0.04236641526222229,
        1.0
      ],
      "name": "M_Hair_1"
    },
    {
      "mesh": 1,
      "name": "Object_6"
    },
    {
      "children": [
        8
      ],
      "matrix": [
        1.0,
        0.0,
        0.0,
        0.0,
        0.0,
        0.0,
        1.0,
        0.0,
        0.0,
        -1.0,
        0.0,
        0.0,
        0.0,
        1.3155131340026855,
        -0.04236641526222229,
        1.0
      ],
      "name": "eyes_2"
    },
    {
      "mesh": 2,
      "name": "Object_8"
    },
    {
      "children": [
        10
      ],
      "matrix": [
        1.0,
        0.0,
        0.0,
        0.0,
        0.0,
        0.0,
        1.0,
        0.0,
        0.0,
        -1.0,
        0.0,
        0.0,
        0.0,
        1.3155131340026855,
        -0.04236641526222229,
        1.0
      ],
      "name": "M_Face.001_3"
    },
    {
      "mesh": 3,
      "name": "Object_10"
    }
  ],
  "samplers": [
    {
      "magFilter": 9729,
      "minFilter": 9987,
      "wrapS": 10497,
      "wrapT": 10497
    }
  ],
  "scene": 0,
  "scenes": [
    {
      "name": "Sketchfab_Scene",
      "nodes": [
        0
      ]
    }
  ],
  "textures": [
    {
      "sampler": 0,
      "source": 0
    },
    {
      "sampler": 0,
      "source": 1
    },
    {
      "sampler": 0,
      "source": 2
    },
    {
      "sampler": 0,
      "source": 3
    },
    {
      "sampler": 0,
      "source": 4
    },
    {
      "sampler": 0,
      "source": 5
    },
    {
      "sampler": 0,
      "source": 6
    }
  ]
}
